<svg xmlns="http://www.w3.org/2000/svg" xmlns:xlink="http://www.w3.org/1999/xlink" width="370" height="340"  style="background-color:white;" >
                                            <defs id="canvasGridDefs">
                                                <pattern id="smallGrid" width="5" height="5" patternUnits="userSpaceOnUse">
                                                    <path id="smallGridPath" d="M 5 0 L 0 0 0 5" fill="none" stroke="lightgray" stroke-width="0.5"></path>
                                                </pattern>
                                                <pattern id="watermarkGrid" width="220" height="80" patternUnits="userSpaceOnUse">
                                                    <rect id="watermarkGridPath0" x="0" y="0" width="220" height="80" fill="white"></rect>
                                                    <text x="60" y="55" transform="rotate(-30 90,90)" fill="#eeeeee" font-family="Arial" font-size="16">Flowdia Diagrams </text>
                                                </pattern>

                                            </defs>
                                            <rect id="canvasGrid" width="100%" height="100%" fill="white"></rect>
                                            <rect id="shapeSelectGrid" width="0" height="0" x="0" y="0" fill="gray" stroke="gray" fill-opacity="0.2" stroke-width="1"></rect>
                                            <circle id="selectionMarker" cx="0" cy="0" r="50" fill="darkslateblue" stroke="darkslateblue" fill-opacity="0.2" stroke-width="0" style="display: none;"></circle>
                                        <rect id="processfd66f700-5ce3-49cd-8eed-359abef76042" x="10" y="180" height="50" width="90" rx="0" ry="0" fill="rgb(255, 242, 204)" fill-opacity="1" stroke-opacity="1" stroke="rgb(127,96,0)"></rect><text id="processfd66f700-5ce3-49cd-8eed-359abef76042Text" x="10" y="189.328125" fill="black" font-size="12" font-family="Arial" font-weight="normal" text-anchor="middle"><tspan x="55" dy="13.671875">Chimney </tspan><tspan x="55" dy="13.671875">Sweep #1 </tspan></text><rect id="bff32c59-a413-45cc-b008-16470a1b7f5f" x="5" y="175" height="60" width="100" stroke-width="1" stroke-dasharray="3,1" fill="none" stroke="none"></rect><rect id="process6a2c9822-f20e-4292-b8a5-900d573e88fc" x="10" y="90" height="50" width="90" rx="0" ry="0" fill="rgb(255, 242, 204)" fill-opacity="1" stroke-opacity="1" stroke="rgb(127,96,0)"></rect><text id="process6a2c9822-f20e-4292-b8a5-900d573e88fcText" x="10" y="99.328125" fill="black" font-size="12" font-family="Arial" font-weight="normal" text-anchor="middle"><tspan x="55" dy="13.671875">Chimney </tspan><tspan x="55" dy="13.671875">Sweep #2 </tspan></text><rect id="747e0266-050b-4e42-8697-a1b57c9ba154" x="5" y="85" height="60" width="100" stroke-width="1" stroke-dasharray="3,1" fill="none" stroke="none"></rect><rect id="process05edf558-83b6-4e55-919b-e17fab851e1a" x="140" y="90" height="50" width="90" rx="0" ry="0" fill="rgb(255, 242, 204)" fill-opacity="1" stroke-opacity="1" stroke="rgb(127,96,0)"></rect><text id="process05edf558-83b6-4e55-919b-e17fab851e1aText" x="140" y="99.328125" fill="black" font-size="12" font-family="Arial" font-weight="normal" text-anchor="middle"><tspan x="185" dy="13.671875">Chimney </tspan><tspan x="185" dy="13.671875">Sweep #3 </tspan></text><rect id="5f6e24bd-a6d4-4e62-8dee-232eec3b2ab4" x="135" y="85" height="60" width="100" stroke-width="1" stroke-dasharray="3,1" fill="none" stroke="none"></rect><rect id="process19fb1009-55b9-40ee-9965-ebec1c4394ff" x="270" y="90" height="50" width="90" rx="0" ry="0" fill="rgb(255, 242, 204)" fill-opacity="1" stroke-opacity="1" stroke="rgb(127,96,0)"></rect><text id="process19fb1009-55b9-40ee-9965-ebec1c4394ffText" x="270" y="99.328125" fill="black" font-size="12" font-family="Arial" font-weight="normal" text-anchor="middle"><tspan x="315" dy="13.671875">Chimney </tspan><tspan x="315" dy="13.671875">Sweep #4 </tspan></text><rect id="c29249e3-a381-406d-8ecb-b020d7b1a6ce" x="265" y="85" height="60" width="100" stroke-width="1" stroke-dasharray="3,1" fill="none" stroke="none"></rect><rect id="processbbfad76e-1c5d-4fea-80d8-36f5e0983664" x="140" y="180" height="50" width="90" rx="0" ry="0" fill="white" fill-opacity="1" stroke-opacity="1" stroke="black"></rect><text id="processbbfad76e-1c5d-4fea-80d8-36f5e0983664Text" x="140" y="189.328125" fill="black" font-size="12" font-family="Arial" font-weight="normal" text-anchor="middle" data-text="Motor Controller
servo2040"><tspan x="185" dy="13.671875">Motor Controller </tspan><tspan x="185" dy="13.671875">servo2040 </tspan></text><rect id="19b8611d-3071-439c-9ac1-dae75aa7e9a2" x="135" y="175" height="60" width="100" stroke-width="1" stroke-dasharray="3,1" fill="none" stroke="none"></rect><rect id="process846494eb-bcd3-4091-99b3-7b7fd8daafc9" x="270" y="180" height="50" width="90" rx="0" ry="0" fill="rgb(255, 242, 204)" fill-opacity="1" stroke-opacity="1" stroke="rgb(127,96,0)"></rect><text id="process846494eb-bcd3-4091-99b3-7b7fd8daafc9Text" x="270" y="189.328125" fill="black" font-size="12" font-family="Arial" font-weight="normal" text-anchor="middle"><tspan x="315" dy="13.671875">Chimney </tspan><tspan x="315" dy="13.671875">Sweep #5 </tspan></text><rect id="4e3f7a1f-71ec-42c1-a9b8-ac4868070a34" x="265" y="175" height="60" width="100" stroke-width="1" stroke-dasharray="3,1" fill="none" stroke="none"></rect><rect id="process3d5da552-f6c8-4766-853b-51b786c24835" x="270" y="270" height="50" width="90" rx="0" ry="0" fill="rgb(255, 242, 204)" fill-opacity="1" stroke-opacity="1" stroke="rgb(127,96,0)"></rect><text id="process3d5da552-f6c8-4766-853b-51b786c24835Text" x="270" y="279.328125" fill="black" font-size="12" font-family="Arial" font-weight="normal" text-anchor="middle"><tspan x="315" dy="13.671875">Chimney </tspan><tspan x="315" dy="13.671875">Sweep #6 </tspan></text><rect id="ca4d5e59-0fb1-4cdb-94af-b71d72e766c2" x="265" y="265" height="60" width="100" stroke-width="1" stroke-dasharray="3,1" fill="none" stroke="none"></rect><rect id="processf5911dd4-7133-40df-a4bb-5c91b6ec2434" x="10" y="270" height="50" width="90" rx="0" ry="0" fill="rgb(255, 242, 204)" fill-opacity="1" stroke-opacity="1" stroke="rgb(127,96,0)"></rect><text id="processf5911dd4-7133-40df-a4bb-5c91b6ec2434Text" x="10" y="279.328125" fill="black" font-size="12" font-family="Arial" font-weight="normal" text-anchor="middle"><tspan x="55" dy="13.671875">Weather Vane </tspan><tspan x="55" dy="13.671875">#8 </tspan></text><rect id="7ec2a994-9b8e-4daf-93a6-6c04d0126e71" x="5" y="265" height="60" width="100" stroke-width="1" stroke-dasharray="3,1" fill="none" stroke="none"></rect><rect id="process5c73fdd6-317c-4167-9627-5f1d5c321566" x="140" y="270" height="50" width="90" rx="0" ry="0" fill="rgb(255, 242, 204)" fill-opacity="1" stroke-opacity="1" stroke="rgb(127,96,0)"></rect><text id="process5c73fdd6-317c-4167-9627-5f1d5c321566Text" x="140" y="279.328125" fill="black" font-size="12" font-family="Arial" font-weight="normal" text-anchor="middle"><tspan x="185" dy="13.671875">Chimney </tspan><tspan x="185" dy="13.671875">Sweep #7 </tspan></text><rect id="e0d4e1f3-3276-4798-b765-0bbf5c6e4ce6" x="135" y="265" height="60" width="100" stroke-width="1" stroke-dasharray="3,1" fill="none" stroke="none"></rect><polyline id="line0ccd1bea-1440-46e9-96c4-5b463328b8ff" points=" 100,205  120,205  120,205  120,205  120,205  120,205  120,205  140,205 " fill="none" stroke="black" stroke-width="1"></polyline><polyline id="line0ccd1bea-1440-46e9-96c4-5b463328b8ffback" points=" 100,205  120,205  120,205  120,205  120,205  120,205  120,205  140,205 " fill="none" stroke="gray" stroke-width="15" opacity="0"></polyline><rect id="line0ccd1bea-1440-46e9-96c4-5b463328b8fftextback" x="120" y="196.1640625" height="1" width="0" fill="none" stroke-width="0"></rect><text id="line0ccd1bea-1440-46e9-96c4-5b463328b8fftext" x="235" y="196.1640625" fill="black" font-size="12" font-family="Arial" font-weight="normal" text-anchor="middle"><tspan x="120" dy="13.671875"> </tspan></text><polygon id="linehead8f2b110c-cf4f-4842-be4a-90b752320bc0" points=" 110,205  110,200  100,205  110,210  110,205 " fill="black" stroke="black" fill-rule="nonzero"></polygon><polyline id="line3f0a88d9-392f-4c56-848b-8d2c84ac7f93" points=" 100,115  120,115  120,115  120,115  120,205  120,205  120,205  140,205 " fill="none" stroke="black" stroke-width="1"></polyline><polyline id="line3f0a88d9-392f-4c56-848b-8d2c84ac7f93back" points=" 100,115  120,115  120,115  120,115  120,205  120,205  120,205  140,205 " fill="none" stroke="gray" stroke-width="15" opacity="0"></polyline><rect id="line3f0a88d9-392f-4c56-848b-8d2c84ac7f93textback" x="120" y="106.1640625" height="1" width="0" fill="none" stroke-width="0"></rect><text id="line3f0a88d9-392f-4c56-848b-8d2c84ac7f93text" x="235" y="106.1640625" fill="black" font-size="12" font-family="Arial" font-weight="normal" text-anchor="middle"><tspan x="120" dy="13.671875"> </tspan></text><polygon id="lineheadbdac1a8e-9e4e-4628-82df-39094c9a99cd" points=" 110,115  110,110  100,115  110,120  110,115 " fill="black" stroke="black" fill-rule="nonzero"></polygon><polyline id="line8b52ad72-50ed-436a-b52b-2bf3bc01b561" points=" 100,295  120,295  120,295  120,295  120,205  120,205  120,205  140,205 " fill="none" stroke="black" stroke-width="1"></polyline><polyline id="line8b52ad72-50ed-436a-b52b-2bf3bc01b561back" points=" 100,295  120,295  120,295  120,295  120,205  120,205  120,205  140,205 " fill="none" stroke="gray" stroke-width="15" opacity="0"></polyline><rect id="line8b52ad72-50ed-436a-b52b-2bf3bc01b561textback" x="120" y="286.1640625" height="1" width="0" fill="none" stroke-width="0"></rect><text id="line8b52ad72-50ed-436a-b52b-2bf3bc01b561text" x="235" y="286.1640625" fill="black" font-size="12" font-family="Arial" font-weight="normal" text-anchor="middle"><tspan x="120" dy="13.671875"> </tspan></text><polygon id="linehead4c24beac-e00a-43dd-9f6f-6590a0f27fa1" points=" 110,295  110,290  100,295  110,300  110,295 " fill="black" stroke="black" fill-rule="nonzero"></polygon><polyline id="lineb96d5289-faac-4d0d-a416-7e7af1156ab7" points=" 185,230  185,250  185,250  185,250  185,250  185,250  185,250  185,270 " fill="none" stroke="black" stroke-width="1"></polyline><polyline id="lineb96d5289-faac-4d0d-a416-7e7af1156ab7back" points=" 185,230  185,250  185,250  185,250  185,250  185,250  185,250  185,270 " fill="none" stroke="gray" stroke-width="15" opacity="0"></polyline><rect id="lineb96d5289-faac-4d0d-a416-7e7af1156ab7textback" x="185" y="241.1640625" height="1" width="0" fill="none" stroke-width="0"></rect><text id="lineb96d5289-faac-4d0d-a416-7e7af1156ab7text" x="300" y="241.1640625" fill="black" font-size="12" font-family="Arial" font-weight="normal" text-anchor="middle"><tspan x="185" dy="13.671875"> </tspan></text><polygon id="lineheadf861f195-7476-410d-9a61-d1b7d5bfa2e6" points=" 185,260  180,260  185,270  190,260  185,260 " fill="black" stroke="black" fill-rule="nonzero"></polygon><polyline id="linec70d6dfb-5318-46f8-b24e-5253638e5aa3" points=" 230,205  250,205  250,205  250,205  250,295  250,295  250,295  270,295 " fill="none" stroke="black" stroke-width="1"></polyline><polyline id="linec70d6dfb-5318-46f8-b24e-5253638e5aa3back" points=" 230,205  250,205  250,205  250,205  250,295  250,295  250,295  270,295 " fill="none" stroke="gray" stroke-width="15" opacity="0"></polyline><rect id="linec70d6dfb-5318-46f8-b24e-5253638e5aa3textback" x="250" y="196.1640625" height="1" width="0" fill="none" stroke-width="0"></rect><text id="linec70d6dfb-5318-46f8-b24e-5253638e5aa3text" x="365" y="196.1640625" fill="black" font-size="12" font-family="Arial" font-weight="normal" text-anchor="middle"><tspan x="250" dy="13.671875"> </tspan></text><polygon id="lineheadab1b0564-a66b-47be-bf53-e39b98b445e3" points=" 260,295  260,290  270,295  260,300  260,295 " fill="black" stroke="black" fill-rule="nonzero"></polygon><polyline id="linec26d46f2-3ebe-4211-aaf5-eabc8305ce79" points=" 230,205  250,205  250,205  250,205  250,205  250,205  250,205  270,205 " fill="none" stroke="black" stroke-width="1"></polyline><polyline id="linec26d46f2-3ebe-4211-aaf5-eabc8305ce79back" points=" 230,205  250,205  250,205  250,205  250,205  250,205  250,205  270,205 " fill="none" stroke="gray" stroke-width="15" opacity="0"></polyline><rect id="linec26d46f2-3ebe-4211-aaf5-eabc8305ce79textback" x="250" y="196.1640625" height="1" width="0" fill="none" stroke-width="0"></rect><text id="linec26d46f2-3ebe-4211-aaf5-eabc8305ce79text" x="365" y="196.1640625" fill="black" font-size="12" font-family="Arial" font-weight="normal" text-anchor="middle"><tspan x="250" dy="13.671875"> </tspan></text><polygon id="linehead21908980-a01c-42cc-a899-9d68772b1b57" points=" 260,205  260,200  270,205  260,210  260,205 " fill="black" stroke="black" fill-rule="nonzero"></polygon><polyline id="line5acf3b78-d519-4dcd-b5ee-9875b97a85bd" points=" 230,205  250,205  250,205  250,205  250,115  250,115  250,115  270,115 " fill="none" stroke="black" stroke-width="1"></polyline><polyline id="line5acf3b78-d519-4dcd-b5ee-9875b97a85bdback" points=" 230,205  250,205  250,205  250,205  250,115  250,115  250,115  270,115 " fill="none" stroke="gray" stroke-width="15" opacity="0"></polyline><rect id="line5acf3b78-d519-4dcd-b5ee-9875b97a85bdtextback" x="250" y="196.1640625" height="1" width="0" fill="none" stroke-width="0"></rect><text id="line5acf3b78-d519-4dcd-b5ee-9875b97a85bdtext" x="365" y="196.1640625" fill="black" font-size="12" font-family="Arial" font-weight="normal" text-anchor="middle"><tspan x="250" dy="13.671875"> </tspan></text><polygon id="linehead01f359fc-00a6-44ad-b987-ace120e02453" points=" 260,115  260,110  270,115  260,120  260,115 " fill="black" stroke="black" fill-rule="nonzero"></polygon><polyline id="linec574235a-a6d7-4455-8872-d1486adfa18c" points=" 185,140  185,160  185,160  185,160  185,160  185,160  185,160  185,180 " fill="none" stroke="black" stroke-width="1"></polyline><polyline id="linec574235a-a6d7-4455-8872-d1486adfa18cback" points=" 185,140  185,160  185,160  185,160  185,160  185,160  185,160  185,180 " fill="none" stroke="gray" stroke-width="15" opacity="0"></polyline><rect id="linec574235a-a6d7-4455-8872-d1486adfa18ctextback" x="185" y="151.1640625" height="1" width="0" fill="none" stroke-width="0"></rect><text id="linec574235a-a6d7-4455-8872-d1486adfa18ctext" x="300" y="151.1640625" fill="black" font-size="12" font-family="Arial" font-weight="normal" text-anchor="middle"><tspan x="185" dy="13.671875"> </tspan></text><polygon id="linehead5c3e4a00-1b43-458a-afae-7789f251416b" points=" 185,150  180,150  185,140  190,150  185,150 " fill="black" stroke="black" fill-rule="nonzero"></polygon><rect id="textonly1799be0d-7314-47d2-adff-d84d78b950af" x="100" y="10" height="70" width="170" rx="0" ry="0" fill="white" fill-opacity="1" stroke-opacity="1" stroke="transparent"></rect><text id="textonly1799be0d-7314-47d2-adff-d84d78b950afText" x="100" y="15.65625" fill="black" font-size="12" font-family="Arial" font-weight="normal" text-anchor="middle" data-text="MOTOR CONNECTION SCHEME
Match the connection order as labeled on the motor wires."><tspan x="185" dy="13.671875">MOTOR CONNECTION </tspan><tspan x="185" dy="13.671875">SCHEME </tspan><tspan x="185" dy="13.671875">Match the connection order as </tspan><tspan x="185" dy="13.671875">labeled on the motor wires. </tspan></text><rect id="fd755566-d805-4935-85de-5ab4f8d7e6d8" x="95" y="5" height="80" width="180" stroke-width="1" stroke-dasharray="3,1" fill="none" stroke="none"></rect></svg>