<svg xmlns="http://www.w3.org/2000/svg" xmlns:xlink="http://www.w3.org/1999/xlink" width="370" height="340"  style="background-color:white;" >
                                            <defs id="canvasGridDefs">
                                                <pattern id="smallGrid" width="5" height="5" patternUnits="userSpaceOnUse">
                                                    <path id="smallGridPath" d="M 5 0 L 0 0 0 5" fill="none" stroke="lightgray" stroke-width="0.5"></path>
                                                </pattern>
                                                <pattern id="watermarkGrid" width="220" height="80" patternUnits="userSpaceOnUse">
                                                    <rect id="watermarkGridPath0" x="0" y="0" width="220" height="80" fill="white"></rect>
                                                    <text x="60" y="55" transform="rotate(-30 90,90)" fill="#eeeeee" font-family="Arial" font-size="16">Flowdia Diagrams </text>
                                                </pattern>

                                            </defs>
                                            <rect id="canvasGrid" width="100%" height="100%" fill="white"></rect>
                                            <rect id="shapeSelectGrid" width="0" height="0" x="0" y="0" fill="gray" stroke="gray" fill-opacity="0.2" stroke-width="1"></rect>
                                            <circle id="selectionMarker" cx="0" cy="0" r="50" fill="darkslateblue" stroke="darkslateblue" fill-opacity="0.2" stroke-width="0" style="display: none;"></circle>
                                        <rect id="processfd66f700-5ce3-49cd-8eed-359abef76042" x="10" y="180" height="50" width="90" rx="0" ry="0" fill="rgb(255, 242, 204)" fill-opacity="1" stroke-opacity="1" stroke="rgb(127,96,0)"></rect><text id="processfd66f700-5ce3-49cd-8eed-359abef76042Text" x="10" y="189.328125" fill="black" font-size="12" font-family="Arial" font-weight="normal" text-anchor="middle"><tspan x="55" dy="13.671875">Chimney </tspan><tspan x="55" dy="13.671875">Sweep #1 </tspan></text><rect id="2bd9acff-94fc-43cf-9fb4-74d04217a767" x="5" y="175" height="60" width="100" stroke-width="1" stroke-dasharray="3,1" fill="none" stroke="black"></rect><rect id="process6a2c9822-f20e-4292-b8a5-900d573e88fc" x="10" y="90" height="50" width="90" rx="0" ry="0" fill="rgb(255, 242, 204)" fill-opacity="1" stroke-opacity="1" stroke="rgb(127,96,0)"></rect><text id="process6a2c9822-f20e-4292-b8a5-900d573e88fcText" x="10" y="99.328125" fill="black" font-size="12" font-family="Arial" font-weight="normal" text-anchor="middle"><tspan x="55" dy="13.671875">Chimney </tspan><tspan x="55" dy="13.671875">Sweep #2 </tspan></text><rect id="b18e5efe-99c7-48e8-bc54-865f19873b70" x="5" y="85" height="60" width="100" stroke-width="1" stroke-dasharray="3,1" fill="none" stroke="black"></rect><rect id="process05edf558-83b6-4e55-919b-e17fab851e1a" x="140" y="90" height="50" width="90" rx="0" ry="0" fill="rgb(255, 242, 204)" fill-opacity="1" stroke-opacity="1" stroke="rgb(127,96,0)"></rect><text id="process05edf558-83b6-4e55-919b-e17fab851e1aText" x="140" y="99.328125" fill="black" font-size="12" font-family="Arial" font-weight="normal" text-anchor="middle"><tspan x="185" dy="13.671875">Chimney </tspan><tspan x="185" dy="13.671875">Sweep #3 </tspan></text><rect id="a8290d7a-25b4-4cf3-b122-3c18d84e0ac4" x="135" y="85" height="60" width="100" stroke-width="1" stroke-dasharray="3,1" fill="none" stroke="black"></rect><rect id="process19fb1009-55b9-40ee-9965-ebec1c4394ff" x="270" y="90" height="50" width="90" rx="0" ry="0" fill="rgb(255, 242, 204)" fill-opacity="1" stroke-opacity="1" stroke="rgb(127,96,0)"></rect><text id="process19fb1009-55b9-40ee-9965-ebec1c4394ffText" x="270" y="99.328125" fill="black" font-size="12" font-family="Arial" font-weight="normal" text-anchor="middle"><tspan x="315" dy="13.671875">Chimney </tspan><tspan x="315" dy="13.671875">Sweep #4 </tspan></text><rect id="97d67f39-4b7f-4d27-8b15-691c3c2707b7" x="265" y="85" height="60" width="100" stroke-width="1" stroke-dasharray="3,1" fill="none" stroke="black"></rect><rect id="processbbfad76e-1c5d-4fea-80d8-36f5e0983664" x="140" y="180" height="50" width="90" rx="0" ry="0" fill="white" fill-opacity="1" stroke-opacity="1" stroke="black"></rect><text id="processbbfad76e-1c5d-4fea-80d8-36f5e0983664Text" x="140" y="189.328125" fill="black" font-size="12" font-family="Arial" font-weight="normal" text-anchor="middle" data-text="Motor Controller
servo2040"><tspan x="185" dy="13.671875">Motor Controller </tspan><tspan x="185" dy="13.671875">servo2040 </tspan></text><rect id="af5ab798-becf-4d04-bca8-1d6c3a925e8d" x="135" y="175" height="60" width="100" stroke-width="1" stroke-dasharray="3,1" fill="none" stroke="black"></rect><rect id="process846494eb-bcd3-4091-99b3-7b7fd8daafc9" x="270" y="180" height="50" width="90" rx="0" ry="0" fill="rgb(255, 242, 204)" fill-opacity="1" stroke-opacity="1" stroke="rgb(127,96,0)"></rect><text id="process846494eb-bcd3-4091-99b3-7b7fd8daafc9Text" x="270" y="189.328125" fill="black" font-size="12" font-family="Arial" font-weight="normal" text-anchor="middle"><tspan x="315" dy="13.671875">Chimney </tspan><tspan x="315" dy="13.671875">Sweep #5 </tspan></text><rect id="c4a26d8e-5315-4b7c-aa17-3a2586eae77a" x="265" y="175" height="60" width="100" stroke-width="1" stroke-dasharray="3,1" fill="none" stroke="black"></rect><rect id="process3d5da552-f6c8-4766-853b-51b786c24835" x="270" y="270" height="50" width="90" rx="0" ry="0" fill="rgb(255, 242, 204)" fill-opacity="1" stroke-opacity="1" stroke="rgb(127,96,0)"></rect><text id="process3d5da552-f6c8-4766-853b-51b786c24835Text" x="270" y="279.328125" fill="black" font-size="12" font-family="Arial" font-weight="normal" text-anchor="middle"><tspan x="315" dy="13.671875">Chimney </tspan><tspan x="315" dy="13.671875">Sweep #6 </tspan></text><rect id="5a489726-020a-4673-a97d-d8838337d5fd" x="265" y="265" height="60" width="100" stroke-width="1" stroke-dasharray="3,1" fill="none" stroke="black"></rect><rect id="processf5911dd4-7133-40df-a4bb-5c91b6ec2434" x="10" y="270" height="50" width="90" rx="0" ry="0" fill="white" fill-opacity="1" stroke-opacity="1" stroke="black"></rect><text id="processf5911dd4-7133-40df-a4bb-5c91b6ec2434Text" x="10" y="279.328125" fill="black" font-size="12" font-family="Arial" font-weight="normal" text-anchor="middle"><tspan x="55" dy="13.671875">Weather Vane </tspan><tspan x="55" dy="13.671875">#8 </tspan></text><rect id="ce3af111-d834-47e7-9d16-7ab5cd53a13f" x="5" y="265" height="60" width="100" stroke-width="1" stroke-dasharray="3,1" fill="none" stroke="black"></rect><rect id="process5c73fdd6-317c-4167-9627-5f1d5c321566" x="140" y="270" height="50" width="90" rx="0" ry="0" fill="rgb(255, 242, 204)" fill-opacity="1" stroke-opacity="1" stroke="rgb(127,96,0)"></rect><text id="process5c73fdd6-317c-4167-9627-5f1d5c321566Text" x="140" y="279.328125" fill="black" font-size="12" font-family="Arial" font-weight="normal" text-anchor="middle"><tspan x="185" dy="13.671875">Chimney </tspan><tspan x="185" dy="13.671875">Sweep #7 </tspan></text><rect id="7461a1aa-727b-4d96-85b2-a46ed12e9436" x="135" y="265" height="60" width="100" stroke-width="1" stroke-dasharray="3,1" fill="none" stroke="black"></rect><polyline id="line683d8f7e-d7c3-4cee-8293-f778d5fafe37" points=" 55,140  55,160  55,160  55,160  55,160  55,160  55,160  55,180 " fill="none" stroke="black" stroke-width="1"></polyline><polyline id="line683d8f7e-d7c3-4cee-8293-f778d5fafe37back" points=" 55,140  55,160  55,160  55,160  55,160  55,160  55,160  55,180 " fill="none" stroke="gray" stroke-width="15" opacity="0"></polyline><rect id="line683d8f7e-d7c3-4cee-8293-f778d5fafe37textback" x="55" y="151.1640625" height="1" width="0" fill="none" stroke-width="0"></rect><text id="line683d8f7e-d7c3-4cee-8293-f778d5fafe37text" x="170" y="151.1640625" fill="black" font-size="12" font-family="Arial" font-weight="normal" text-anchor="middle"><tspan x="55" dy="13.671875"> </tspan></text><polygon id="lineheadd3653542-fbd2-4a85-bc0f-aeb7f6f6dbb9" points=" 55,150  50,150  55,140  60,150  55,150 " fill="black" stroke="black" fill-rule="nonzero"></polygon><polyline id="line81d5085f-aaf4-40b8-8394-759c45b29d45" points=" 100,115  120,115  120,115  120,115  120,115  120,115  120,115  140,115 " fill="none" stroke="black" stroke-width="1"></polyline><polyline id="line81d5085f-aaf4-40b8-8394-759c45b29d45back" points=" 100,115  120,115  120,115  120,115  120,115  120,115  120,115  140,115 " fill="none" stroke="gray" stroke-width="15" opacity="0"></polyline><rect id="line81d5085f-aaf4-40b8-8394-759c45b29d45textback" x="120" y="106.1640625" height="1" width="0" fill="none" stroke-width="0"></rect><text id="line81d5085f-aaf4-40b8-8394-759c45b29d45text" x="235" y="106.1640625" fill="black" font-size="12" font-family="Arial" font-weight="normal" text-anchor="middle"><tspan x="120" dy="13.671875"> </tspan></text><polygon id="linehead80ae4581-1d6c-45cb-a1a6-e4d24166ab7a" points=" 130,115  130,110  140,115  130,120  130,115 " fill="black" stroke="black" fill-rule="nonzero"></polygon><polyline id="linec2673583-6362-4dc0-acbe-d3a16ddb9767" points=" 230,115  250,115  250,115  250,115  250,115  250,115  250,115  270,115 " fill="none" stroke="black" stroke-width="1"></polyline><polyline id="linec2673583-6362-4dc0-acbe-d3a16ddb9767back" points=" 230,115  250,115  250,115  250,115  250,115  250,115  250,115  270,115 " fill="none" stroke="gray" stroke-width="15" opacity="0"></polyline><rect id="linec2673583-6362-4dc0-acbe-d3a16ddb9767textback" x="250" y="106.1640625" height="1" width="0" fill="none" stroke-width="0"></rect><text id="linec2673583-6362-4dc0-acbe-d3a16ddb9767text" x="365" y="106.1640625" fill="black" font-size="12" font-family="Arial" font-weight="normal" text-anchor="middle"><tspan x="250" dy="13.671875"> </tspan></text><polygon id="lineheadc117a5b0-94a0-4574-9fd4-04ae5fd579a4" points=" 260,115  260,110  270,115  260,120  260,115 " fill="black" stroke="black" fill-rule="nonzero"></polygon><polyline id="line7cb03352-fc26-4719-9e46-c74613fe541b" points=" 315,140  315,160  315,160  315,160  315,160  315,160  315,160  315,180 " fill="none" stroke="black" stroke-width="1"></polyline><polyline id="line7cb03352-fc26-4719-9e46-c74613fe541bback" points=" 315,140  315,160  315,160  315,160  315,160  315,160  315,160  315,180 " fill="none" stroke="gray" stroke-width="15" opacity="0"></polyline><rect id="line7cb03352-fc26-4719-9e46-c74613fe541btextback" x="315" y="151.1640625" height="1" width="0" fill="none" stroke-width="0"></rect><text id="line7cb03352-fc26-4719-9e46-c74613fe541btext" x="430" y="151.1640625" fill="black" font-size="12" font-family="Arial" font-weight="normal" text-anchor="middle"><tspan x="315" dy="13.671875"> </tspan></text><polygon id="linehead5214b4f8-9066-435e-bb31-075614814594" points=" 315,170  310,170  315,180  320,170  315,170 " fill="black" stroke="black" fill-rule="nonzero"></polygon><polyline id="line403a5e07-1241-4fa6-9731-54fc132c8a79" points=" 315,230  315,250  315,250  315,250  315,250  315,250  315,250  315,270 " fill="none" stroke="black" stroke-width="1"></polyline><polyline id="line403a5e07-1241-4fa6-9731-54fc132c8a79back" points=" 315,230  315,250  315,250  315,250  315,250  315,250  315,250  315,270 " fill="none" stroke="gray" stroke-width="15" opacity="0"></polyline><rect id="line403a5e07-1241-4fa6-9731-54fc132c8a79textback" x="315" y="241.1640625" height="1" width="0" fill="none" stroke-width="0"></rect><text id="line403a5e07-1241-4fa6-9731-54fc132c8a79text" x="430" y="241.1640625" fill="black" font-size="12" font-family="Arial" font-weight="normal" text-anchor="middle"><tspan x="315" dy="13.671875"> </tspan></text><polygon id="lineheadbc5b056e-2be0-4a07-9064-980b94f915b0" points=" 315,260  310,260  315,270  320,260  315,260 " fill="black" stroke="black" fill-rule="nonzero"></polygon><polyline id="line9ae21b3f-0251-4989-9392-617e5e2fc33b" points=" 230,295  250,295  250,295  250,295  250,295  250,295  250,295  270,295 " fill="none" stroke="black" stroke-width="1"></polyline><polyline id="line9ae21b3f-0251-4989-9392-617e5e2fc33bback" points=" 230,295  250,295  250,295  250,295  250,295  250,295  250,295  270,295 " fill="none" stroke="gray" stroke-width="15" opacity="0"></polyline><rect id="line9ae21b3f-0251-4989-9392-617e5e2fc33btextback" x="250" y="286.1640625" height="1" width="0" fill="none" stroke-width="0"></rect><text id="line9ae21b3f-0251-4989-9392-617e5e2fc33btext" x="365" y="286.1640625" fill="black" font-size="12" font-family="Arial" font-weight="normal" text-anchor="middle"><tspan x="250" dy="13.671875"> </tspan></text><polygon id="linehead5bdd5ba1-471a-4282-87df-2fe06e5345d4" points=" 240,295  240,290  230,295  240,300  240,295 " fill="black" stroke="black" fill-rule="nonzero"></polygon><polyline id="line82636130-4ae1-4fdd-93ca-47df7796c3e8" points=" 100,205  120,205  120,205  120,205  120,205  120,205  120,205  140,205 " fill="none" stroke="black" stroke-width="1"></polyline><polyline id="line82636130-4ae1-4fdd-93ca-47df7796c3e8back" points=" 100,205  120,205  120,205  120,205  120,205  120,205  120,205  140,205 " fill="none" stroke="gray" stroke-width="15" opacity="0"></polyline><rect id="line82636130-4ae1-4fdd-93ca-47df7796c3e8textback" x="120" y="196.1640625" height="1" width="0" fill="none" stroke-width="0"></rect><text id="line82636130-4ae1-4fdd-93ca-47df7796c3e8text" x="235" y="196.1640625" fill="black" font-size="12" font-family="Arial" font-weight="normal" text-anchor="middle"><tspan x="120" dy="13.671875"> </tspan></text><polygon id="linehead81c92e9f-fae1-4942-af4a-fec3f597119b" points=" 110,205  110,200  100,205  110,210  110,205 " fill="black" stroke="black" fill-rule="nonzero"></polygon><rect id="textonly1799be0d-7314-47d2-adff-d84d78b950af" x="100" y="10" height="70" width="170" rx="0" ry="0" fill="white" fill-opacity="1" stroke-opacity="1" stroke="transparent"></rect><text id="textonly1799be0d-7314-47d2-adff-d84d78b950afText" x="100" y="15.65625" fill="black" font-size="12" font-family="Arial" font-weight="normal" text-anchor="middle" data-text="LED CONNECTION SCHEME
Recommended to start with connecting #7 to #6, then #6 to #5 and so forth."><tspan x="185" dy="13.671875">LED CONNECTION SCHEME </tspan><tspan x="185" dy="13.671875">Recommended to start with </tspan><tspan x="185" dy="13.671875">connecting #7 to #6, then #6 to </tspan><tspan x="185" dy="13.671875">#5 and so forth. </tspan></text><rect id="24ac3cb1-395e-4e44-9a30-531d64b3ce46" x="95" y="5" height="80" width="180" stroke-width="1" stroke-dasharray="3,1" fill="none" stroke="black"></rect></svg>